<?xml version="1.0" encoding="utf-8"?>
<svg xmlns="http://www.w3.org/2000/svg" viewBox="0 0 1024 796">
  <path d="M1 573V226l2-3A252 252 0 0 1 66 86 256 256 0 0 1 222 3l4-2h574l14 4a252 252 0 0 1 185 138q17 34 23 73l3 10v347l-2 3a261 261 0 0 1-117 182q-45 28-97 36l-9 3H226l-4-2-21-4A256 256 0 0 1 3 577zm965-130v-2l-1-11-1-1-1-7v-3l-1-3-3-16-2-11-1-12-2-7-5-28-1-11-10-57q-1-5-6-5l-19-1q-7 0-8 6l-3 22-6 38-1 7-5 28-3 14-3 15v2l-1 5-2 13-5 30-1 1-1 5-3 23c-1 3 0 7-6 7h-64l-3-1 1-1 1-2 1-2v-5l8-21h1l5-16 1-1 4-11 3-10 5-17 4-7 4-12v-1l1-2 3-11 4-11 8-22c7-18 16-35 14-56q0-6-6-6h-75q-5 0-5 5v16q0 6 5 5h46q8-1 4 6l-10 31-5 12a637 637 0 0 0-24 69l-5 15-3 6-2 6h-1v3l-1 3-1 2v1h-1v2l-1 1-1 2-3 12-1 1v2l-1 1-2 6v1h-1v3h-1l-2 31h116q9 2 7-8l2-5q0-9 3-19l3-17q1-3 4-4l39 1 1 5 1 13 1 1 3 19 2 14h27l-4-25-3-11v-5l-1-8-1-3v-2l-1-9-1-1zm-372 41-1-1v1h-1l-2-1-1-2v-36l-1-33 1-8v-4l48-1 3-3v-18q0-5-6-5l-1 1-1-1h-27l-16-1-1-21v-15l1-35q-1-4 3-6h53q5 1 5-5v-14q1-8-7-7h-76q-9-2-7 7l1 65v10l-1 27v133h86l4-2v-13l-1-12-3-1h-8v1l-3-1-18 1-1-1h-6v1l-11-1h-4zm126-56 1 3v4l2 5v2l4 17v2l1 6 6 27 2 13 2 3h28l-6-24-1-2v-5l-1-2v-4l-1-4-2-6v-3l-1-4v-1l-1-3-2-7v-2l-5-24-1-3v-1l-1-5-2-5-1-6 7-5q1-6 6-10l1-2 2-5v-2l2-23v-40q-3-41-45-44h-46q-7 0-6 6v90l1 6v6l-2 8v16l1 25v3l-1 4v31l1 9h-1l1 2h-1l1 1v5l-1 6 1 2h-1l1 1-1 2 1 16-1 2 2 1h27v-9l1-68-1-4v-18q0-3 4-4 10-2 21 3v1l1 1 3 13zm-328-18v-3l-1-5 1-2v-26a264 264 0 0 1-1-49l1-42c0-16 2-15-16-15q-6 0-7 6l-3 10-13 44-4 14-3 9-2 10-8 20-3 9-1 2-4 15-1 1-2-1-1-3-1-2v-2l-1-2-5-17-6-16-5-15-3-10-3-11-15-46c-5-16-1-14-19-14q-7 0-6 6v100l-1 23v12l1 7v11l-1 5v14l1 4-1 3 1 3v23l-1 30 2 1h25v-5l1-20-1-16 1-7-1-25 1-6-1-14v-1l1-2-1-11v-27l1-7 3 5 6 17v2l2 3 1 3 1 3 1 6 1 4 1 1v2l2 3v2l1 1v2l1 1 1 4 2 7 1 1v2l1 2v1l1 2v2l1 1v1l6 21q2 4 6 4 5 1 6-4l7-24v-2l1-2 2-5 4-15 2-8 2-4 4-12v-1l5-14 5-14 2 8-1 13v8l1 11-1 13v90l13-10 14-8 1-31-1-12zm150 2v-3l1-21 1-2 1-26-4-17 1-4v-65q1-5-5-6l-11 1q-6 0-7 5l-4 13-16 54-3 10-4 11v2l-1 1-5 16-1 1-1 4-1 5-2 5-6 14v-1l-1-5-6-19-4-11-3-9-5-14-6-22-15-48q-3-14-15-12l-3-1q-8-1-7 7v161l-1 2 1 17v34l8-1 2 1h7l2 1h7v-19l1-4-1-9 1-2-1-12 1-1-1-2v-69l3-3 4 16v1l2 3 5 17 1 2 4 10 3 12 1 3 1 4 2 5 5 15 4 14 5 2 5-2 5-19 2-6 3-9 1-2 11-33 1-7 4-12 3-11v-1l1-1 3-1 1 3-1 4v71l-1 2v30l1 15v3l-1 2 2 12h25l1-1 2-11-1-51v-11l-1-20-1-1v-2h1zm72 174 3-1 2 1 2-1 3 1 17-1h11l2 1 11-1 9 1 5-3v-8h-35l-9-1-2 1h-1l-3-1-12 1-2-1-17 1h-69l-4-1-4 1h-27l-2-1h-6l-2 1-2-1v-20l-1-5v-4l-1-2v-3l-6-10v-1l-2-5q-12-17-32-23l-20-3q-9-1-19 4h-1l-3 1q-15 5-26 17-9 11-13 25-8 29 10 53 7 13 22 20l15 5h2l6 2h17l14-4q16-6 25-21h1l4-7q3-9 12-7l6-1h22l5 1 12-1h1l1 1 3-1h5l3 1 4-1 28 1 25-1 6 1zM69 397l-1-24 1-8v-36l1-21q2-6 6-10 9-5 20 0 7 4 7 14l1 15q0 4 4 4h18q5 0 5-5v-18q-1-21-17-32-15-9-33-7-34 3-39 37l-1 24v21l-1 2v37l1 3-1 2 1 4v1l-1 1-1 25v36l3 22 3 5 1 2 1 2 1 1v1l2 1v1l2 2 1 2 3 1q16 13 36 10 20-1 33-18l6-18v-21q1-6-5-5h-18q-4 0-5 5l-1 22h-1l-1 1q-10 12-26 2l-4-11v-3l-1-6v-1l1-15v-1l-1-5v-13l1-2-1-4zm74-47v5q-3 11 0 24v30l1 8v23l-1 20 1 3-1 3 1 5v4l1 6 6 13 7 8q21 16 48 10 15-1 27-13l9-19 1-10v-44q0 1 0 0v-12l1-16-1-37v-32l-1-26q-2-18-17-28a63 63 0 0 0-54-4q-25 8-27 37v37z" style="fill: rgba(47, 88, 87, 0);"/>
  <path d="m800 797 9-3a258 258 0 0 0 214-218l2-3v224zM1 573l2 4a258 258 0 0 0 198 214l21 4 4 2H1zM226 1l-4 2A255 255 0 0 0 3 223l-2 3V1zm799 225-3-10a251 251 0 0 0-81-149Q887 17 814 5l-14-4h225z"/>
  <path fill="#060504" d="M662 336v-61q-1-6 6-6h46q42 3 45 44v17l-5-1-16 1q-5-1-6 4v-16q0-20-20-22l-16-1q-7 0-6 6l-1 28-19-1-5 3zm-518-3v-25q2-29 27-37 28-10 54 4 15 9 17 28l1 26h-3l-25 2v-18q-1-18-19-19h-6q-16 0-18 18l-1 18-19-1q-5-2-8 4m-103-4 1-23q5-34 39-37 18-2 33 7 16 12 17 32v18q0 5-5 5h-18q-4 0-4-4l-1-15q0-10-7-14-11-5-20 0-4 4-6 10l-1 21z"/>
  <path fill="#070605" d="m560 340-1-64q-2-9 7-7h76q8-1 7 7v14q0 5-5 5h-53q-4 2-3 6l-1 36-4 3-15 1z"/>
  <path fill="#060504" d="m825 331 10-30q4-7-4-6h-46q-5 0-5-5v-16q0-5 5-5h75q6 0 6 6c2 21-7 38-14 57q-13-5-27-1m71 2 6-37 3-22q1-6 8-6l19 1q5 0 6 5l9 58h-4l-20-2-2-6-2 6q-12-3-23 3"/>
  <path fill="#090705" d="m542 339-1 5h-1c-3-4-6-2-9-3h-17l-15-1 16-53 4-13q1-5 7-5l11-1q6 1 5 6z"/>
  <path fill="#e46528" d="m896 479-3 19-4-1-30-2-31 2-40-1-13 1-4 5q-2 8 7 8h105q8 1 9-6 2 9-7 7H769l3-31q8 13 20 6l6-3 3 1h64c6 0 5-4 6-8l18-1z"/>
  <path fill="#060504" d="M260 333v-58q-1-6 6-6c18 0 14-2 19 14l14 47-14-1c-8 0-17-2-25 4m150-2v-56q-1-8 7-7l3 1q12-2 15 12l15 49-6-1h-17q-8-1-17 2m-57-4 13-43 3-10q1-6 7-6c18 0 16-1 16 15l-1 43-5 3h-29z"/>
  <path fill="#ec7126" d="M892 504q-1 7-9 6H778q-9 1-7-8l4-5 13-1 40 1 31-2 30 2 4 1z"/>
  <path fill="#d63d22" d="M876 449v-2l2-3c9 0 16-5 24-4l17-1 24 2 22 2 1 1 1 3 1 2-1 5-10 2-9 4-4 3-1-5-8-1h-54q-5 0-5-5z"/>
  <path fill="#e66326" d="m151 493-6-13-1-5v-5l-1-4 1-3v-1l1 2 4 14q2 4 8 2l10-3 5-3h1l1 3 1 2q0-1 0 0l2 1c11 9 26 8 36-2q11 3 21-2l6-2 2 3v4l-10 18c-3-4-13-6-17-5l-13 2q-14-3-26 2-3 1-6-1-9-7-19-4"/>
  <path fill="#622014" d="M611 373h18l2 1h1l1-1q6-1 6 5v18q0 2-4 3l2-8-6-2-10 1-16-1h-19q-10 4-20 1-5-2-5 4l-1 4v10h-1l1-30 5-3c6-1 11-4 18-1l5-1z"/>
  <path fill="#ea7127" d="M151 493q10-3 19 4 3 2 6 1 12-5 26-2l13-2c4-1 14 1 17 5q-11 12-26 13-27 6-48-10-4-3-7-9"/>
  <path fill="#e46528" d="m649 510-4 1h-86v-34h1c0 3-1 9 4 9q11 1 21-1l3-1h4v-1l1 1h1v-1h21l2 1h18l2-1h8l3 2v10h-28l-24-1-25 1-6 1c-6 2-5 6-5 10q1 5 7 4z"/>
  <path fill="#e66326" d="M74 481q16 9 27-3l1-1q9 3 18 0l11-4v2l-1 1-6 18q-6-2-12-1l-34 2-5-1c-8-2-14 2-21 4l-2-1-1-1-1-2-1-1-1-2-1-2v-3l6-1h17z"/>
  <path fill="#ea7127" d="M52 498c7-2 13-6 21-4l5 1 34-2q6-1 12 1-11 17-32 18-20 2-37-10l-2-2z"/>
  <path fill="#662115" d="m661 384 2-8c8-6 17-4 26-3v1l1 2v4l1 1 29-1 4-1 15 3c5 1 10-1 14 3l-6 9q-1-3-5-4c-12-1-23 1-34-3l-3 1h-20l-10-1q-6 3-12 2z"/>
  <path fill="#070605" d="M390 617q-15-6-22-19a61 61 0 0 1-10-53q4-14 14-25l6 2-2 5a56 56 0 0 0-8 56q7 14 19 25-2 4 1 6z"/>
  <path fill="#782617" d="M663 389q6 1 12-2l10 1h20l3-1c11 4 22 2 34 3q4 0 5 5l-7 5-6-3-13 2-5 1-15-3-19-1q-10 0-19 5z"/>
  <path fill="#dd4d25" d="m131 473-11 4q-9 3-18 0l1-22q1-5 5-5h18q6 0 5 5z"/>
  <path fill="#842b1a" d="M663 401q9-5 19-5l19 1 15 3 5-1 13-2 6 3 2 6 1 6-6-8v2h-13q-7-1-9 5-10-5-21-3-4 1-4 4v12l-2-11q2-7-5-7l-20-1z"/>
  <path fill="#782617" d="m560 398 1-4q0-6 5-4 10 3 20-1h19l16 1 10-1 6 2-2 8-47 1-5-3z"/>
  <path fill="#d64223" d="m145 464-1-2-1-3 1-20 26 1 1 20z"/>
  <path fill="#e25725" d="M515 497v-28l2-5h20l4 4 1 5-1 7v6l-19 3q-6-1-6 5z"/>
  <path fill="#d64223" d="m542 473-1-5-4-4h-20v-2l-1-1-1-14v-4l11-2 15-4v2l1 8zm-2-11q1-1 0 0"/>
  <path fill="#e25725" d="M759 484v2q-14-1-25 7l-6-25v-6l6 3 14 1q6 2 7-4v3l2 6 1 4v6z"/>
  <path fill="#5f291b" d="M482 569v6q1 8 9 10l-5 1q-9-2-12 8l-5 6v1l-7 3-1-1 5-12 2-3 1-2 3-7v-4q5-8 2-16v-2q0-11-4-20l-8-15 1-1 11 9 6 11v3l1 1v5l1 5z"/>
  <path fill="#41180f" d="M588 372q-3 3-5 2c-7-3-12 0-18 1l-5 2v-27q10 5 22 3l5-1z"/>
  <path fill="#d64223" d="m338 448-6 21q-1 5-6 4-4 0-6-4l-6-22v-1l-1-1v-1l-1-3h15l12 1v4z"/>
  <path fill="#37160d" d="M410 367v-13l7-3 39 1 5 14-24-3-15-1q-8-1-12 5"/>
  <path fill="#481b11" d="m294 386-4-11-3-5-1 8q-4-7-13-6l-12 2-1-2v-5l6-3 28-2 17 4 5 15-1-1q-2-7-9-5l-13 1z"/>
  <path fill="#37160d" d="M492 365v-3l5-11 6 1 15-1 23 2-1 8v5l-24-3-3 1zm46-2q-1 1 0 0m-3 0q1 1 0 0m-5-2q-1 1 0 0m-219 5-17-4-28 2-6 3v-11l6-5h40z"/>
  <path fill="#511e13" d="m243 362-1 34q1-13-11-15c-9-1-11-2-16 5l-1-9v-3l4-9q1-3 4-3zm-23 2"/>
  <path fill="#37160d" d="m390 355 2 20h-1c-1-11-3-12-13-13h-18l-16-2 2-9q7-5 14-1l4 1 18-1q6 0 8 5"/>
  <path fill="#ea7127" d="m515 497 1-3q0-6 6-5l19-2v24l-26-1z"/>
  <path fill="#2d130b" d="M243 362h-21l-4 2-2-13-2-4v-2l1-1 7-4h10l2 1c2 4 6 2 9 2z"/>
  <path fill="#e25725" d="m74 481-6 4H51l-6 1-3-12 1-6 20-4q3-1 5-4h1v6l1 4v1z"/>
  <path fill="#df4f25" d="M260 453v-2h1q0 8 8 6l12-2 4-2 1 11v7l-1 5-3-1-18 2-3 2h-1zm1 7q1 1 0 0m-19 16-2-2-6 2q-10 5-21 2l2-8v-8l1-5 7-1 19 2 1 1v12z"/>
  <path fill="#481b11" d="m344 360 16 2h18c10 1 12 2 13 12l-9-2-12 1-4 2-2-7-6 14q1-9-9-10-10 0-13 8z"/>
  <path fill="#41180f" d="m474 530-11-9-1 1 8 15 4 19-7-20q-7-14-20-21l-20-7-3-2q5-6-3-8l19 3q20 6 32 23z"/>
  <path fill="#df4f25" d="m661 474 1-2 1-18 3 5 24-3-1 36v-11q0-6-6-5h-13q-5-2-7 4h-1l-1-4zm215-21q0 4 5 4h54l8 1h-39q-4 0-4 4l-4 17-7-4-18 1 4-23z"/>
  <path fill="#e87429" d="M260 479c0 5-2 11 4 12l15 2q5 0 5-6v-11h1v35h-26v-32"/>
  <path fill="#e25725" d="m587 483-2 2q-10 2-21 1c-5 0-4-6-4-10l1-8h26l1 3v11z"/>
  <path fill="#d63d22" d="M436 444v1l-1 9-4 3q-10 5-21 3v-22c9 0 18-1 25 6z"/>
  <path fill="#251009" d="m456 352-39-1-7 3v-14l16 1 6-1q12-3 22 3z"/>
  <path fill="#8d2b1a" d="M69 399v21q0-8-7-7l-15 1q-5 0-5 5v13h-1v-32l8-4 19 1z"/>
  <path fill="#251009" d="M306 351h-40l-6 5v-12l6-4h8l29 1z"/>
  <path fill="#e75f25" d="m971 476 3 11q-1 8-9 7l-16 2-1-3v-3l-3-19 6 4z"/>
  <path fill="#622014" d="m836 378-5 12q-8 1-15-1-11-2-14 8l-2 3 9-25 6-3c7 2 15-1 22 4l-1 1z"/>
  <path fill="#e25725" d="m798 483-6 3q-12 7-20-6l1-3 1-1 2-7 1-3 18 3q3 1 6 5l-1 4-1 2zm-406-34v43c-2-9-2-9-10-9h-7q-9 1-9 9l-1 11v-30l2-7 17 2q8 1 7-6v-10zm-25 30q-1 1 0 0"/>
  <path fill="#e87429" d="M949 497q7-3 16-3 8 1 9-7l4 24h-27z"/>
  <path fill="#d63d22" d="m690 456-24 3-3-5-1-21v-4l1 5 2 5q12 4 24 1z"/>
  <path fill="#8d2b1a" d="M515 412v-13l27-2v13l-1 4-26 1z"/>
  <path fill="#e87429" d="M662 480v16l18-2 8-2v3l1 2v14h-28v-21q-1 0 0 0v-2q-1 0 0 0z"/>
  <path fill="#140c08" d="m353 327 4 2h29l5-3v13l-3 2-16-1q-10-2-20 1h-3z"/>
  <path fill="#ab321f" d="M42 430v-11q-1-5 5-5l15-1q7-1 7 7v19l1 4v2l-2 5v-7q1-15-13-13z"/>
  <path fill="#df4f25" d="m971 476-20-1q-3-1-6-5l-1-6 4-4 9-4 10-2 2 4v5l2 8z"/>
  <path fill="#ab321f" d="m243 458-1-1v-18q1-10-6-9h-5q-8 0-16 4v-19l1-1 26 1h1z"/>
  <path fill="#dc5c29" d="m607 586-6-1h-1l-3-1-22-2-4-3 4-2 22-2h32l-7 2q0 7 7 7l13 1h-22l-1 1-3-1h-2zm-2-2q1 0 0 0m-2 0q1 0 0 0m-1-1q-1 1 0 0"/>
  <path fill="#ab321f" d="m663 433-1-8 1-8 21-3 4-1 2 18-2 2q-13-3-25 0m-492 27-1-20q3-10-6-9h-20v-14l3-1 24-3 1 11v36z"/>
  <path fill="#251009" d="m541 353-23-2-15 1-6-1 2-11 15 1h17c3 1 6-1 9 3z"/>
  <path fill="#622014" d="m261 374 12-2q9-2 13 6v13q-3-3-7-2l-6 1q-10-3-14 7z"/>
  <path fill="#e76927" d="m365 503 1-11q0-8 9-9h7c8 0 8 0 10 9v2l-14 7-13 10z"/>
  <path fill="#251009" d="M349 341h3q10-3 20-1l16 1 3-2-1 16q-2-5-8-5l-18 1-4-1q-7-4-14 1z"/>
  <path fill="#622014" d="m366 375 4-2 12-1 9 3 1 2v14c-9-5-18-1-26-1l-1-2z"/>
  <path fill="#7d2818" d="M144 408v-17c6-5 12-1 17-2q7-2 11 4v3l1 1-1 2v2l-1 2-17 2z"/>
  <path fill="#140c08" d="M454 343q-10-6-22-3l-6 1-16-1v-9q8-3 17-2h17l6 1z"/>
  <path fill="#ab321f" d="M720 427v-2l-2-11 27 3v1l1 3 5 24-1-1-2-2-3-12-6 1h-2q-9-4-16 2v-2z"/>
  <path fill="#8d2b1a" d="m800 400 2-3 26 1-5 16-6-2h-21z"/>
  <path fill="#662115" d="M172 393q-4-6-11-4c-5 1-11-3-17 2l-1-12v-1l2-2 12-3c12 0 12 0 15 11z"/>
  <path fill="#ab321f" d="m965 431 1 11h-1q-1-9-9-12c-5-1-12-3-17 2l-2-1 1-9 5-8 16-1 3 4 1 3v3z"/>
  <path fill="#140c08" d="m303 341-29-1h-8l-6 4v-11c8-6 17-4 25-4l14 1z"/>
  <path fill="#d63d22" d="m392 449-1 3-25 9v-22l10-1 15 3 1 7z"/>
  <path fill="#ab321f" d="m878 444-2 3 5-30q13-4 25 0l-2 13-15 1c-10 2-11 4-11 13"/>
  <path fill="#a2301d" d="M392 411v7l-1 6-5-3-15 3h-5v-16c9-6 17-2 25 0v1z"/>
  <path fill="#ab321f" d="m436 444-1-11q-1-4-5-3h-6q-9-4-13 5v-19h26v-1 27z"/>
  <path fill="#d63d22" d="m783 447 1-2 1-2 1-3q9-3 17 1 10 1 6 10v1q-9 2-16 6-8 3-11-4v-3l1-2z"/>
  <path fill="#932c1b" d="m454 417-3-10 6-3c6 2 12 0 17 6h1l1 1 14-6q6-4 10 1l-4 14q-2-7-8-6h-32z"/>
  <path fill="#8d2b1a" d="m962 417-3-4-16 1-5 8-4-24 7 1 18 2z"/>
  <path fill="#df4f25" d="M410 460q10 2 21-3l5-3v5l1 8-1 5q-4 5-10 3l-16-3z"/>
  <path fill="#b64b2c" d="m597 575-22 2-4 2 4 3 22 2 2 1h-59l-2-10z"/>
  <path fill="#e66326" d="m410 472 16 3q6 2 10-3v19l-4-1-4-1h-8l-3-1-1 1-2-1h-4z"/>
  <path fill="#622014" d="m486 382 1-1v-2q6-4 11-5c10 0 10 1 10 10v1l-4 11-3-3-18-2 1-5z"/>
  <path fill="#dd4523" d="M755 462q-1 6-7 4l-14-1-6-3-1-1v-7l24-5 2 5 1 2v1z"/>
  <path fill="#622014" d="m885 397 2-15 1-2q4-8 15-6 7 0 9 8l-1 2-1 4-1 1q-13-1-24 8"/>
  <path fill="#932c1b" d="M328 408v-2l5-2q6 0 13 3l4 3-2 4c-6-4-12-1-18-1q-12 3-23 0h-4l-1-1v-4q6-4 11-4l10-2 1 2v4l1 2z"/>
  <path fill="#712416" d="m68 397-19-1-8 4v-8l1-10 12-1 13 2z"/>
  <path fill="#7f321f" d="M492 585q-9-2-10-10h3l1-1 2 1h8l18 2c4 0 9-1 10 5l2 3z"/>
  <path fill="#7d2818" d="M259 397q4-10 14-7l6-1q4-2 7 3v12l-1 1-12-1c-5 0-11-1-13 5z"/>
  <path fill="#712416" d="m542 397-27 2v-9l1-7 18-2q5-1 6 4l2 8z"/>
  <path fill="#41180f" d="m466 591-5 12 1 1 7-3q-9 14-25 20l-14 4q5-4 3-9l22-13z"/>
  <path fill="#712416" d="M443 386v-2l1-3 5 1q7 5 13 3l6 1 5 18q-1-4-4-6-8-3-16 1l-3 7-6-18z"/>
  <path fill="#622014" d="m956 378 1 12-8-2q-12-3-16 7l-1-19 7-2c8-3 11-2 17 4"/>
  <path fill="#251009" d="M143 354v-2l1-2v-6c4 2 3-2 4-3l10-1 14-1-1 16q-13-4-27 0z"/>
  <path fill="#a2301d" d="M303 413h4q11 3 23 0c6 0 12-3 18 1l-2 8-7-2-12 2q-11-1-19 6l-1-3-1-2v-1l-1-2v-2l-2-3z"/>
  <path fill="#622014" d="M336 380q4-8 13-8 10 1 9 10l-4 14q1-6-4-7l-16 2v-1z"/>
  <path fill="#7d2818" d="m334 391 16-2q5 1 4 8l-1 1v3l-3 9-4-3q-6-3-13-3l-4 2 4-14z"/>
  <path fill="#d63d22" d="m467 456-5-18 10 3 16 2v4l-2 6q-9 8-19 3"/>
  <path fill="#7d2818" d="m483 390 18 2 3 3-2 8v1l-1 2q-5-5-11-1l-14 6-1-1 6-14z"/>
  <path fill="#4b1e13" d="m42 382-2 8 1-39 2 1v2l-1 2v7c9-2 17 1 25-1l2 1v3l-1 8-16-2q-11-1-10 10"/>
  <path fill="#712416" d="M410 397v-14l25-1 2 6-1 9q-14-3-26 0"/>
  <path fill="#dd4d25" d="M782 454q3 7 11 4 7-4 16-6l-8 22q-3-4-6-5l-18-3 4-12z"/>
  <path fill="#b13320" d="M308 428q8-7 19-6l12-2 7 2-5 14h-1l-10-5c-7-2-15-5-20 4z"/>
  <path fill="#e87429" d="m760 488 6 23h-28l-2-3-2-13q4 5 10 5h12q5 1 5-4z"/>
  <path fill="#7d2818" d="m323 402-10 2q-6 0-11 4h-1l-1-6-1-2-1-4-1-3-1-1v-4l9 2c8-1 15-1 17 8v1z"/>
  <path fill="#a2301d" d="m455 418 1-4h32q6-1 8 6l-1 5-9-4c-10 0-20 0-28 8z"/>
  <path fill="#622014" d="M322 399c-2-9-9-9-17-8l-9-2h-2l-1-12 13-1q7-2 9 5l2 2z"/>
  <path fill="#140c08" d="M243 343c-3 0-7 2-9-2l-2-1h-10l-7 4v-13l25-2 3 1zm582-12q13-4 27 1l-4 11h-3l-4-1-9-1-11 3z"/>
  <path fill="#8d2b1a" d="M906 417q-12-4-25 0l2-13 1-1 15-1c3 0 7-3 9 1z"/>
  <path fill="#251009" d="m587 352-5 1q-12 2-22-3v-10l8 1 15-1 4-3zm-12 0"/>
  <path fill="#37160d" d="M43 354v-3q10-3 20 0l6-2v14l-2-1c-8 2-16-1-25 1v-8zm907-1 4 18q-6-8-16-6h-8l-3-8 1-2v-3l15 1z"/>
  <path fill="#140c08" d="M148 341c-1 1 0 5-4 3v-11q3-6 8-4l19 1 1 9-14 1z"/>
  <path fill="#251009" d="M759 343v11q-7-3-15-1l-3-1q-7-3-9 4v-12l4-4c8 1 16-3 23 3"/>
  <path fill="#37160d" d="m663 370-1-5v-9q2-6 7-5c7 0 15-2 21 3l-1 7q-6 4-12 1-13-4-14 8"/>
  <path fill="#140c08" d="m662 336 3-5 5-3 19 1 1 9q-7 3-13 2-10-1-15 6z"/>
  <path fill="#e76927" d="m760 488 1 8q1 5-5 4h-12q-6 1-10-6v-1q11-8 25-7z"/>
  <path fill="#a2301d" d="M796 412q10 2 21 0l6 2-4 10q-7-2-13-1-7 0-15 4z"/>
  <path fill="#c53521" d="m488 443-16-2-10-3-2-2v-4l8-1 17-1q7-2 6 6v1z"/>
  <path fill="#140c08" d="m41 329 28 1v11c-9-4-17-1-25 0l-3-1z"/>
  <path fill="#481b11" d="m759 366-2 10q-2-4-7-3-5 2-11 1-7-3-13 2l6-11 13-2q9-4 14 3"/>
  <path fill="#251009" d="M662 346q5-7 15-6l13-1v15c-6-5-14-3-21-3q-5 0-7 5z"/>
  <path fill="#140c08" d="M759 343c-7-6-15-2-23-3l-4 3v-9q1-5 6-4l16-1 5 2z"/>
  <path fill="#552316" d="M410 368q4-8 12-6l15 2 2 4-3 4v5l-8-4q-4 2-7-1-7-4-10 4l-1 3z"/>
  <path fill="#932c1b" d="m144 408 10-3 17-2 1 4-1 6-24 3h-3z"/>
  <path fill="#37160d" d="m890 368 2-13 7-1c6-1 11-4 16-1l-2 18c-2-3-1-8-6-6l-7 1z"/>
  <path fill="#b13320" d="M492 435q0-6-7-5l-17 1-8 1-2-3c8-8 18-8 28-8q4 1 8 5z"/>
  <path fill="#251009" d="M845 343h3l-4 10-7-1-20 1 4-9 11-3 9 1z"/>
  <path fill="#140c08" d="m923 330 20 2h5l1 11q-12-4-23 2z"/>
  <path fill="#37160d" d="M759 366q-6-7-14-3l-13 1v-8q2-7 9-4l3 1q7-2 15 1zm58-13 20-1 7 2-4 11q-7-3-15-4-7 2-13 6z"/>
  <path fill="#c53521" d="M310 435c5-9 13-6 20-4l10 5-1 6-12-1h-15l-1-3v-1z"/>
  <path fill="#481b11" d="M812 367q6-4 13-6 8 0 15 4l-3 11c-7-5-15-2-22-4l-6 3z"/>
  <path fill="#251009" d="M915 353c-5-3-10 0-16 1l-7 1 3-15 1 1q7-3 14 2l3-3 4 6zM41 340l3 1c8-1 16-4 25 1v7l-6 2q-10-3-20 0l-2-1z"/>
  <path fill="#932c1b" d="M435 416h-25v-13q9-2 15 1l11 4v7z"/>
  <path fill="#d63d22" d="m751 449-24 5-4-14v-2h8q8 6 17 4l2 2 1 1z"/>
  <path fill="#eb7f2e" d="m679 575-1 9-5 1h-21c-1-4 1-8-4-10z"/>
  <path fill="#d63d22" d="m559 447 1-4 3-1 14-3 10 1 1 6-1 3-1 1h-26z"/>
  <path fill="#481b11" d="M663 370q1-12 14-8 6 3 12-1v12c-9-1-18-3-26 3z"/>
  <path fill="#932c1b" d="m559 409 1-1 5-1c7-4 15-2 22-2v8l-12 2c-5 0-10 3-16 0z"/>
  <path fill="#5c1e12" d="m542 393-2-8q-1-5-6-4l-18 2-1-8 2-3h18l2 1h1l3 3 2 13z"/>
  <path fill="#b13320" d="m261 450-1-4v-8l1-5v-6c5 0 6-6 11-5l14 1v-2l1 11v7l-1 13v-12c-1-9-1-9-9-8l-2-1q-12-2-13 9z"/>
  <path fill="#5c1e12" d="M726 376q6-5 13-2 6 1 11-1t7 4v2l-3 4-1 2c-4-4-9-2-14-3l-15-3z"/>
  <path fill="#932c1b" d="m745 417-27-3 2 11-4-12-1-2q2-6 9-5h13v-2l6 8z"/>
  <path fill="#782617" d="M933 395q4-10 16-7l8 2 2 11-18-2-7-1zm20 3q1 0 0 0m-45 5c-2-4-6-1-9-1l-15 1v-6q12-9 25-8z"/>
  <path fill="#140c08" d="m917 346-4-6-3 3q-7-5-14-2l-1-1 1-7q11-6 23-3v1l-1 1h1z"/>
  <path fill="#ea7127" d="M648 575c5 2 3 6 4 10h-10l-13-1q-7 0-7-7l7-2z"/>
  <path fill="#932c1b" d="M259 409c3-6 9-5 14-5l12 1v9h-22v-1l-3 3z"/>
  <path fill="#c53521" d="M748 442q-9 2-17-4h-8l-2-3v-2q7-6 16-2h2l6-1z"/>
  <path fill="#b13320" d="M559 433v-10q15 1 28-1v9l-4 1q-12-1-24 1m-44-5 1-6 25 1v9l-10-1q-7-3-12 3l-4 2z"/>
  <path fill="#c53521" d="M810 452q4-9-6-10-8-4-17-1l3-7 3-1c8 0 16-5 23 3v1l-1 3z"/>
  <path fill="#b13320" d="M815 435c-7-8-15-3-23-3l-3 1 2-6q7-3 15-4 7-1 13 1z"/>
  <path fill="#5c1e12" d="m410 379 1-3q3-8 10-4 3 3 7 1l8 5v4h-1l-25 1zm-368 3q-1-11 10-10l16 2v2l-1 7-13-2z"/>
  <path fill="#842b1a" d="M391 408c-8-2-16-6-25-1v-11h9q9 0 16 5z"/>
  <path fill="#251009" d="M926 345q11-6 23-2l1 10h-7l-15-1z"/>
  <path fill="#c53521" d="m391 441-15-3-10 1v-2l-1-3v-1l1-3 26 2v5z"/>
  <path fill="#481b11" d="M508 384c0-9 0-10-10-10q-5 1-11 5l5-13 20-1-1 6v3z"/>
  <path fill="#140c08" d="m378 522-6-2q10-12 26-17l2-1h2c5 3 2 5 0 7h-2l-3 1-1 1z"/>
  <path fill="#481b11" d="m890 368 10-2 7-1c5-2 4 3 6 6l-1 11q-2-8-9-8-11-2-15 6l-1 2z"/>
  <path fill="#a2301d" d="m260 417 3-4v1h22l1 2v3l-1 2v2l-14-1c-5-1-6 5-11 5z"/>
  <path fill="#5c1e12" d="m468 386-6-1q-6 1-13-3l-5-1q-2-9 5-8l15 2z"/>
  <path fill="#842b1a" d="M588 404c-8 1-16-1-23 3l-4 1-1-10 23-1 4 3 1 1z"/>
  <path fill="#481b11" d="m464 375-15-2q-7 0-5 8l-1 3-4-16-2-5 24 3z"/>
  <path fill="#c53521" d="m515 436 4-2q4-6 12-3l10 1v5l-15 4-10 2h-1z"/>
  <path fill="#a2301d" d="M587 422q-13 2-28 0v-6c6 2 11-1 16-1l12-2z"/>
  <path fill="#dd4d25" d="M467 456q10 4 19-3l-5 18-5 2-5-2z"/>
  <path fill="#c53521" d="M559 433q12-2 24-1h4v8l-10-1-14 3h-3z"/>
  <path fill="#b13320" d="m392 432-26-3-1-3 1-2h5l15-3 5 3 1 3z"/>
  <path fill="#c53521" d="M144 431h20q9-1 6 9l-26-1z"/>
  <path fill="#251009" d="M433 616q2 5-4 9h-16l-7-2 1-5-1-2z"/>
  <path fill="#842b1a" d="M243 415v-4c0-7-1-7-8-8q-10-1-19 5v-10l27-2 1 3zm192-7-10-4q-6-3-15-1v-6q12-3 26 0v10z"/>
  <path fill="#c53521" d="M410 435q4-9 13-5h6q4-1 5 3l1 11c-7-7-16-6-25-6l-1-1z"/>
  <path fill="#782617" d="m828 398-25-1q2-10 13-8 7 2 15 1zm-437 3q-7-5-16-5h-9l-1-5 1-1c8 0 17-4 26 1z"/>
  <path fill="#481b11" d="M930 365h8q9-2 16 6l2 7c-6-6-9-7-17-4l-7 2h-1l-2-2v-3l1-1z"/>
  <path fill="#842b1a" d="m450 406 3-7q8-4 16-1 3 2 4 7l2 5h-1c-5-6-11-4-17-6l-6 3z"/>
  <path fill="#251009" d="M402 509c2-2 5-4 0-7q8-5 19-4 8 2 3 8z"/>
  <path fill="#481b11" d="M521 372h-4l-2-3 1-6 5-1 1 1 18 3 1 7h-4l-2-1zm-2-1q1 0 0 0"/>
  <path fill="#a2301d" d="m527 585-3-3c-1-6-6-5-10-5l7-2h17l2 10zm14-162-25-1-1-6v-1l26-1z"/>
  <path fill="#4b1e13" d="M41 401v52l1 21 3 12v2l-3-4-3-22v-36z"/>
  <path fill="#322019" d="M542 473v-55l1 19v11l1 51-2 11z"/>
  <path fill="#140c08" d="m407 618-1 5h-2l-14-6-2-3q-4-2-1-6l19 8z"/>
  <path fill="#322019" d="m541 373-1-7v-5l1-8v-9l4 16-1 26-1 3-2-13z"/>
  <path fill="#842b1a" d="m689 433 1-2 1 3-1 58v-36l-1-17z"/>
  <path fill="#7f321f" d="m663 417-1 8-1-24v-16l2 4z"/>
  <path fill="#322019" d="m143 354 1 1 2 10-1 11-2 2q-3-11 0-24"/>
  <path fill="#7f321f" d="M662 433v39l-1-8zm-377 19 2 12-2-11z"/>
  <path fill="#4b1e13" d="m67 383 1-7v22-1zm448 86v23l-1-13z"/>
  <path fill="#622014" d="M392 493v-41l1 11z"/>
  <path fill="#a2301d" d="M648 495v-10l1 11v14l-1-1z"/>
  <path fill="#ab321f" d="m365 438 1 1v24l1 2v1l-2 7z"/>
  <path fill="#d64223" d="M541 480v31z"/>
  <path fill="#b64b2c" d="m559 448 1 2v16l1 1v1l-2 8z"/>
  <path fill="#7f321f" d="m287 486-1-10v-5z"/>
  <path fill="#ab321f" d="m723 442 4 12v5z"/>
  <path fill="#7f321f" d="m285 421 1-2v13z"/>
  <path fill="#b13320" d="M515 469v-22l1 14 1 2v1z"/>
  <path fill="#5f291b" d="m575 586 25-1z"/>
  <path fill="#7f321f" d="m286 416-1-2v-9l1-1z"/>
  <path fill="#4b1e13" d="m516 363-1 6-4 1 2-6zm-1 12 1 8-1 7z"/>
  <path fill="#a2301d" d="M587 440v-14zm0 10v12z"/>
  <path fill="#7f321f" d="m542 418-1 19v-20z"/>
  <path fill="#552316" d="m437 457-1-3v-9z"/>
  <path fill="#b13320" d="m488 443 3-6-3 10z"/>
  <path fill="#622014" d="M392 427v-11 16z"/>
  <path fill="#41180f" d="M621 373h-8zM469 600"/>
  <path fill="#ab321f" d="m969 458-1-4v-5z"/>
  <path fill="#552316" d="m435 382 1 6z"/>
  <path fill="#41180f" d="M611 373h-6z"/>
  <path fill="#4b1e13" d="M515 436v4-12z"/>
  <path fill="#eb7f2e" d="M645 575h-11z"/>
  <path fill="#ab321f" d="M751 449v-2l2 7z"/>
  <path fill="#511e13" d="m242 477 1-6-1 10z"/>
  <path fill="#e75f25" d="m971 471-2-8h1z"/>
  <path fill="#b13320" d="m391 441 1-3v10z"/>
  <path fill="#41180f" d="m482 555-1-5z"/>
  <path fill="#4b1e13" d="m70 466-1-5z"/>
  <path fill="#5f291b" d="m630 574-1 1h-8z"/>
  <path fill="#dd4d25" d="m776 469-2 7h-1z"/>
  <path fill="#ab321f" d="M727 461v5z"/>
  <path fill="#622014" d="M884 399v4l-1 1z"/>
  <path fill="#ab321f" d="m721 435 2 3v2z"/>
  <path fill="#622014" d="M392 444v-9z"/>
  <path fill="#552316" d="m410 489 4-1z"/>
  <path fill="#4b1e13" d="m70 443-1-4z"/>
  <path fill="#41180f" d="M493 575h-5z"/>
  <path fill="#481b11" d="m754 383 2-4z"/>
  <path fill="#41180f" d="M525 575h-4z"/>
  <path fill="#ab321f" d="m757 471-2-6z"/>
  <path fill="#b13320" d="m460 436 2 2v3z"/>
  <path fill="#b64b2c" d="M610 585h4l-1 1z"/>
  <path fill="#662115" d="m144 475 1 5z"/>
  <path fill="#d64223" d="m339 442 1-5 1-1z"/>
  <path fill="#ab321f" d="m876 452-1 1v-4z"/>
  <path fill="#4b1e13" d="M69 424v-4z"/>
  <path fill="#782617" d="M391 408v-5l1 5v1z"/>
  <path fill="#ab321f" d="m967 447-1-3z"/>
  <path fill="#5f291b" d="m673 586 5-2z"/>
  <path fill="#481b11" d="M294 388h2v4z"/>
  <path fill="#322019" d="m144 350-1 2z"/>
  <path fill="#622014" d="m327 408-2 2v-2z"/>
  <path fill="#481b11" d="m486 382-2 3z"/>
  <path fill="#4b1e13" d="M41 395v3z"/>
  <path fill="#7f321f" d="M286 511v-4z"/>
  <path fill="#622014" d="m297 393 1 3z"/>
  <path fill="#782617" d="m366 424-1 2v-5z"/>
  <path fill="#5f291b" d="m513 585 5 1z"/>
  <path fill="#8d2b1a" d="M963 423v-3z"/>
  <path fill="#932c1b" d="m303 415 2 3z"/>
  <path fill="#e76927" d="m759 484-1-3h1z"/>
  <path fill="#251009" d="m400 502-2 1z"/>
  <path fill="#41180f" d="m631 374-2-1z"/>
  <path fill="#481b11" d="m443 386 1 2z"/>
  <path fill="#e87429" d="M948 490v3z"/>
  <path fill="#552316" d="m428 489 4 1z"/>
  <path fill="#a2301d" d="M588 484v-2z"/>
  <path fill="#622014" d="m299 400 1 2z"/>
  <path fill="#dd4d25" d="m800 478 1-4z"/>
  <path fill="#5f291b" d="m533 586 2-1z"/>
  <path fill="#662115" d="m143 466 1 4z"/>
  <path fill="#4b1e13" d="M515 415v-4z"/>
  <path fill="#7f321f" d="m541 414 1-4v2z"/>
  <path fill="#622014" d="M301 408v4z"/>
  <path fill="#37160d" d="M261 374v-2z"/>
  <path fill="#c53521" d="M338 448v-2z"/>
  <path fill="#b13320" d="m814 439 1-3z"/>
  <path fill="#4b1e13" d="m53 500 2 2zm-1-2-2-2z"/>
  <path fill="#b13320" d="m311 438 1 3zm204 2v-2z"/>
  <path fill="#c53521" d="m785 443-1 2z"/>
  <path fill="#7f321f" d="M286 403v-3z"/>
  <path fill="#c53521" d="m786 440-1 3z"/>
  <path fill="#842b1a" d="M391 409v2z"/>
  <path fill="#e46528" d="m773 477-1 3z"/>
  <path fill="#5f291b" d="m544 586 3-1z"/>
  <path fill="#932c1b" d="m720 428 1 3z"/>
  <path fill="#7d2818" d="m259 453 1 3z"/>
  <path fill="#5f291b" d="M610 585h-3z"/>
  <path fill="#481b11" d="M366 390v-3z"/>
  <path fill="#842b1a" d="M392 416v2z"/>
  <path fill="#662115" d="m143 459 1 3z"/>
  <path fill="#5f291b" d="M613 586h2z"/>
  <path fill="#932c1b" d="m746 421-1-3z"/>
  <path fill="#ab321f" d="M970 463v-3zm-211 18v-2z"/>
  <path fill="#e46528" d="m798 482 1-2z"/>
  <path fill="#5f291b" d="M506 585h2zm25 0"/>
  <path fill="#4b1e13" d="m45 489 1 2z"/>
  <path fill="#552316" d="M436 491v-2z"/>
  <path fill="#481b11" d="M334 391h-1v-1z"/>
  <path fill="#a2301d" d="M594 484h-1z"/>
  <path fill="#dd4d25" d="m777 467-1 2z"/>
  <path fill="#622014" d="M392 410v-1z"/>
  <path fill="#df4f25" d="M410 454v2z"/>
  <path fill="#481b11" d="m392 377-1-2h1z"/>
  <path fill="#c53521" d="m782 454 1-2zm1-7v2zm0 2-1 2z"/>
  <path fill="#8d2b1a" d="m965 431-1-1z"/>
  <path fill="#842b1a" d="m715 411 1 1z"/>
  <path fill="#932c1b" d="m305 420 1 1zm1 3 1 1z"/>
  <path fill="#511e13" d="M243 426q0 1 0 0"/>
  <path fill="#d63d22" d="M965 442h-1z"/>
  <path fill="#df4f25" d="m945 476 1 1z"/>
  <path fill="#ab321f" d="M758 475q0-1 0 0"/>
  <path fill="#7f321f" d="M661 474q0-1 0 0"/>
  <path fill="#4b1e13" d="m48 495 1 1z"/>
  <path fill="#c53521" d="M314 446v1z"/>
  <path fill="#ab321f" d="M965 443v1z"/>
  <path fill="#7f321f" d="M662 488q-1 0 0 0-1-1 0 0"/>
  <path d="m726 376-1 1-5 3h-30v-4l-1-2v-13l1-7v-53q-1-6 6-6l16 1q20 2 20 22v47zm-511 22v36l-1 1v14l1 12v9l-3 8a25 25 0 0 1-35 2l-2-2-1-1-1-3-1-4v-71l1-2-1-1v-12q3-10-2-18l1-4 1-1-1-6 1-16v-27q1-18 18-18h6q18 0 19 19v30l-1 2v2q-4 14 0 27v14l1 6z" style="fill: rgba(37, 37, 36, 0);"/>
  <path d="m931 376 2 19 1 3 4 24-1 9h-30l-3-1 6-41v-1l2-4v-2l1-11 2-18 2-7 2-15v-1l2-6 2 6 3 15 2 7v3l-1 2 3 8v5l-1 1v3z" style="fill: rgba(38, 36, 35, 0);"/>
  <path fill="#c53521" d="m935 432 2-1 2 1c5-5 12-3 17-2q8 3 9 12v1l-22-2-24-2-17 1c-8-1-15 4-24 4 0-9 1-11 11-13l15-1 3 2zm-32 1q1-1 0 0"/>
  <path fill="#df4f25" d="M172 470v4l-5 3-10 3q-6 2-8-2l-4-14 26-4h1v2h-1l1 1v4h-1l1 1z"/>
  <path fill="#4b1e13" d="m172 474 1-3v3zm2 3 1 1zm1 2 2 1z"/>
  <path fill="#ea7127" d="M648 495v14l-81 1q-6 1-7-4c0-4-1-8 5-10l6-1 25-1 24 1z"/>
  <path fill="#481b11" d="m720 380 5-3-1 2z"/>
  <path fill="#4b1e13" d="m689 374 1 2z"/>
  <path d="m406 616-19-8q-12-11-19-25-12-30 8-56l2-5 19-12 3-1h2l22-3 3 2 20 7q13 7 20 21l7 21v2l-2 20-4 7v2l-2 3-11 12-22 13z" style="fill: rgba(0, 0, 0, 0);"/>
  <path fill="#932c1b" d="M663 417v-11h20q7 0 5 7l-4 1z"/>
  <path fill="#e25725" d="M540 462q1-1 0 0"/>
  <path fill="#41180f" d="m472 575 2-16q3 8-2 16m-6 16 2-3z"/>
  <path fill="#481b11" d="M538 363q-1 1 0 0m-3 0q1 1 0 0m-5-2q-1 1 0 0"/>
  <path fill="#712416" d="M215 398v-12c5-7 7-6 16-5q12 2 11 15z"/>
  <path fill="#322019" d="M214 374q-4-13 0-27l2 4 2 14zm1 12v2h-1zm-1-41 1-2v1z"/>
  <path fill="#dd4523" d="M68 450v9q-2 4-5 5l-20 3v-2l-1-1v-14l11-2z"/>
  <path fill="#ab321f" d="M42 450v14l1 2-1 8-1-21v-21h1z"/>
  <path fill="#d63d22" d="m285 452-4 2-12 2q-8 2-8-6v-11l7-1 17 1z"/>
  <path fill="#e75f25" d="M285 476v11q0 6-5 6l-15-2c-6-1-4-7-4-12l3-2 18-2z"/>
  <path fill="#d63d22" d="M261 460q1 1 0 0m-19-21-1 18-18-1-7 1v-16z"/>
  <path fill="#ab321f" d="M216 454v3l-1 5v-26l1 5z"/>
  <path fill="#842b1a" d="M215 470v-5z"/>
  <path fill="#e75f25" d="m689 492-8 2-18 2v-16q2-6 7-4h13q6 0 6 5z"/>
  <path fill="#dd4523" d="M587 462v5l-26 1v-1l-1-1v-16h26z"/>
  <path fill="#c53521" d="M42 441v-11h13q14-1 13 12l-11-3c-5 0-10-2-15 2"/>
  <path fill="#dd4523" d="M366 463v-2l25-9v10q1 7-7 6l-17-2v-2z"/>
  <path fill="#e76927" d="M367 479q-1 1 0 0"/>
  <path fill="#c53521" d="m688 433 1 6q-12 5-24 0l-2-5q13-4 25-1"/>
  <path fill="#df4f25" d="m689 495 1 1z"/>
  <path fill="#d63d22" d="M42 441c5-4 10-2 15-2l11 4v7l-15-2-11 2z"/>
  <path fill="#932c1b" d="M215 410v-2q9-6 19-5c7 1 8 1 8 8v4l-26-1z"/>
  <path fill="#c53521" d="m216 441-1-5v-2q8-4 16-4h5q7-2 6 9z"/>
  <path fill="#842b1a" d="m215 410 1 4-1 1zm0 10v-3z"/>
  <path fill="#b64b2c" d="M605 584q1 0 0 0m-2 0q1 0 0 0m-1 0q-1-1 0 0"/>
  <path fill="#4b1e13" d="M172 424v2zm0-25v2zm0-3"/>
  <path fill="#c53521" d="m750 444-2-2z"/>
  <path fill="#4b1e13" d="M170 366q5 7 2 18c-3-11-3-11-15-11l-12 3 1-11 6-1h4q6-3 11-1 4 0 3 3"/>
  <path fill="#481b11" d="M911 384v4z"/>
  <path fill="#7d2818" d="M324 408v2z"/>
  <path fill="#37160d" d="M170 366q1-3-3-3-5-2-11 1h-4l-6 1-2-10q14-5 27 0l1 6-1 1z"/>
  <path fill="#251009" d="m927 357 1-2zm-779-16"/>
  <path fill="#37160d" d="M689 363v2z"/>
  <path fill="#4b1e13" d="M541 373v3l-3-3zm-6-1 2 1zm-14 0"/>
  <path fill="#c53521" d="m285 440-17-1-7 1q1-11 13-9l2 1c8-1 8-1 9 8"/>
  <path fill="#8d2b1a" d="M953 398q1 0 0 0"/>
  <path fill="#37160d" d="m931 376-2-2zm-2-5 1-1zm0 2"/>
  <path fill="#4b1e13" d="M519 371q1 0 0 0"/>
  <path fill="#e25725" d="m366 463 1 1zm194 3 1 1zm27-4"/>
  <path fill="#511e13" d="m214 435-1 12v-13m1-46v6z"/>
  <path fill="#842b1a" d="m214 449 1-1z"/>
  <path fill="#ab321f" d="m934 431-5 1zm-11 0-2 1zm-20 1q1 1 0 0"/>
</svg>